# AST/ASF file generated using VICON BodyLanguage
# -----------------------------------------------
:version 1.10
:name VICON
:units
  mass 1.0
  length 0.45
  angle deg
:documentation
   .ast/.asf automatically generated from VICON data using
   VICON BodyBuilder and BodyLanguage model FoxedUp or BRILLIANT.MOD
:root
   order TX TY TZ RX RY RZ
   axis XYZ
   position 0 0 0  
   orientation 0 0 0 
:bonedata
  begin
     id 1 
     name lhipjoint
     direction 0.714689 -0.624256 0.315473 
     length 2.45343 
     axis 0 0 0  XYZ
  end
  begin
     id 2 
     name lfemur
     direction 0.34202 -0.939693 0  
     length 6.59069  
     axis 0 0 20  XYZ
    dof rx ry rz
    limits (-160.0 20.0)
           (-70.0 70.0)
           (-60.0 70.0)
  end
  begin
     id 3 
     name ltibia
     direction 0.34202 -0.939693 0   
     length 6.73476   
     axis 0 0 20   XYZ
    dof rx
    limits (-10.0 170.0)
  end
  begin
     id 4 
     name lfoot
     direction 0.0718085 -0.197292 0.977711   
     length 1.52607   
     axis -90 7.62852e-016 20   XYZ
    dof rx rz
    limits (-45.0 90.0)
           (-70.0 20.0)
  end
  begin
     id 5 
     name ltoes
     direction 1.53553e-011 -4.22024e-011 1   
     length 0.777832   
     axis -90 7.62852e-016 20   XYZ
    dof rx
    limits (-90.0 20.0)
  end
  begin
     id 6 
     name rhipjoint
     direction -0.727419 -0.612432 0.309497   
     length 2.50079  
     axis 0 0 0  XYZ 
  end
  begin
     id 7 
     name rfemur
     direction -0.34202 -0.939693 0   
     length 6.51665   
     axis 0 0 -20   XYZ
    dof rx ry rz
    limits (-160.0 20.0)
           (-70.0 70.0)
           (-70.0 60.0)
  end
  begin
     id 8 
     name rtibia
     direction -0.34202 -0.939693 0   
     length 6.48919   
     axis 0 0 -20   XYZ
    dof rx
    limits (-10.0 170.0)
 end
 begin
     id 9 
     name rfoot
     direction -0.112205 -0.308282 0.944655   
     length 1.68717  
     axis -90 -7.62852e-016 -20   XYZ
    dof rx rz
    limits (-45.0 90.0)
           (-20.0 70.0)
  end
  begin
     id 10 
     name rtoes
     direction -1.53583e-011 -4.21993e-011 1   
     length 0.846859   
     axis -90 -7.62852e-016 -20   XYZ
    dof rx
    limits (-90.0 20.0)
  end
  begin
     id 11 
     name lowerback
     direction -0.00119603 0.996364 -0.0851956   
     length 1.67242   
     axis 0 0 0   XYZ
    dof rx ry rz
    limits (-20.0 45.0)
           (-30.0 30.0)
           (-30.0 30.0)
  end
  begin
     id 12 
     name upperback
     direction -0.00531001 0.998318 0.0577248   
     length 1.64819   
     axis 0 0 0   XYZ
    dof rx ry rz
    limits (-20.0 45.0)
           (-30.0 30.0)
           (-30.0 30.0)
  end
  begin
     id 13 
     name thorax
     direction -0.00653676 0.995132 0.0983291   
     length 1.67429   
     axis 0 0 0   XYZ
    dof rx ry rz
    limits (-20.0 45.0)
           (-30.0 30.0)
           (-30.0 30.0)
  end
  begin
     id 14 
     name lowerneck
     direction 0.0141424 0.999886 0.00525412   
     length 1.59623   
     axis 0 0 0   XYZ
    dof rx ry rz
    limits (-20.0 45.0)
           (-30.0 30.0)
           (-30.0 30.0)
  end
  begin
     id 15 
     name upperneck
     direction -0.0640064 0.987178 -0.146232   
     length 1.59576   
     axis 0 0 0   XYZ
    dof rx ry rz
    limits (-20.0 45.0)
           (-30.0 30.0)
           (-30.0 30.0)
  end
  begin
     id 16
     name head
     direction -0.0222942 0.998496 -0.0500859  
     length 1.60959  
     axis 0 0 0   XYZ
    dof rx ry rz
    limits (-20.0 45.0)
           (-30.0 30.0)
           (-30.0 30.0)
  end
  begin
     id 17 
     name lclavicle
     direction 0.908549 0.392612 0.142806  
     length 2.80649  
     axis 0 0 0   XYZ
    dof ry rz
    limits (-20.0 10.0)
           (0.0 20.0)
  end
  begin
     id 18 
     name lhumerus
     direction 1 -4.48968e-011 1.08832e-028   
     length 4.2884   
     axis -180 -30 -90   XYZ
    dof rx ry rz
    limits (-60.0 90.0)
           (-90.0 90.0)
           (-90.0 90.0)
  end
  begin
     id 19
     name lradius
     direction 1 -4.48952e-011 -3.02642e-028   
     length 3.06552   
     axis -180 -30 -90   XYZ
    dof rx
    limits (-10.0 170.0)
  end
  begin
     id 20
     name lwrist
     direction 1 -4.49014e-011 1.58672e-027   
     length 1.53276   
     axis -1.65735e-015 90 90   XYZ
    dof ry
    limits (-180.0 0.0)
 end
  begin
     id 21 
     name lhand
     direction 1 -4.48928e-011 3.17344e-027   
     length 0.753045   
     axis -2.02492e-015 90 90   XYZ
    dof rx rz
    limits (-90.0 90.0)
           (-45.0 45.0)
  end
  begin
     id 22 
     name lfingers
     direction 1 -4.48958e-011 6.34687e-027   
     length 0.607124   
     axis -4.04985e-015 90 90   XYZ
    dof rx
    limits (0.0 90.0)
  end
  begin
     id 23
     name lthumb
     direction 0.707107 -6.34905e-011 0.707107   
     length 0.871712   
     axis -90 45 2.85299e-015   XYZ
    dof rx rz
    limits (-45.0 45.0)
           (-45.0 45.0)
  end
  begin
     id 24 
     name rclavicle
     direction -0.885098 0.45949 0.0739604   
     length 2.9478  
     axis 0 0 0   XYZ 
    dof ry rz
    limits (-10.0 20.0)
           (-20.0 0.0)
  end
  begin
     id 25 
     name rhumerus
     direction -1 -4.4898e-011 -2.61739e-027  
     length 4.52172   
     axis -180 30 90   XYZ
    dof rx ry rz
    limits (-90.0 60.0)
           (-90.0 90.0)
           (-90.0 90.0)
  end
  begin
     id 26 
     name rradius
     direction -1 -4.48945e-011 9.02552e-028   
     length 2.8914   
     axis -180 30 90   XYZ
    dof rx
    limits (-10.0 170.0)
  end
  begin
     id 27 
     name rwrist
     direction -1 -4.49018e-011 1.58672e-027   
     length 1.4457   
     axis -1.65735e-015 -90 -90   XYZ
    dof ry
    limits (-180.0 0.0)
  end
  begin
     id 28
     name rhand
     direction -1 -4.48825e-011 3.17344e-027   
     length 0.680541   
     axis -2.02492e-015 -90 -90   XYZ
    dof rx rz
    limits (-90.0 90.0)
           (-45.0 45.0)
  end
  begin
     id 29
     name rfingers
     direction -1 -4.49067e-011 6.34687e-027   
     length 0.54867   
     axis -4.04985e-015 -90 -90   XYZ
    dof rx
    limits (0.0 90.0)
  end
  begin
     id 30
     name rthumb
     direction -0.707107 -6.34833e-011 0.707107   
     length 0.787783   
     axis -90 -45 -2.85299e-015   XYZ
    dof rx rz
    limits (-45.0 45.0)
           (-45.0 45.0)
  end
:hierarchy
  begin
    root lhipjoint rhipjoint lowerback
    lhipjoint lfemur
    lfemur ltibia
    ltibia lfoot
    lfoot ltoes
    rhipjoint rfemur
    rfemur rtibia
    rtibia rfoot
    rfoot rtoes
    lowerback upperback
    upperback thorax
    thorax lowerneck lclavicle rclavicle
    lowerneck upperneck
    upperneck head
    lclavicle lhumerus
    lhumerus lradius
    lradius lwrist
    lwrist lhand lthumb
    lhand lfingers
    rclavicle rhumerus
    rhumerus rradius
    rradius rwrist
    rwrist rhand rthumb
    rhand rfingers
  end

#!OML:ASF E:\emotionWalksFemale\Project 1\Capture day 1\Session 1\Female1.ASF
:FULLY-SPECIFIED
:DEGREES
194
root 8.48189 20.0291 12.4231 177.985 -5.35537 -181.26
lowerback 16.1503 0.365954 2.86945
upperback -2.20968 1.17565 1.36221
thorax -11.5165 0.400185 -0.432091
lowerneck -7.3047 -2.91351 -6.72888
upperneck 7.93608 -3.48628 2.84729
head 4.14444 -1.82441 1.96257
rclavicle 2.1607e-014 -2.38542e-015
rhumerus 90.8518 -28.4909 -49.9643
rradius 38.0098
rwrist 4.12465
rhand -9.98182 -36.0245
rfingers 7.12502
rthumb 16.0012 294.616
lclavicle 2.1607e-014 -2.38542e-015
lhumerus 97.9123 33.2927 60.1932
lradius 35.5937
lwrist 10.7134
lhand -15.0294 -49.7239
lfingers 7.12502
lthumb 11.1364 -20.0394
rfemur -16.7213 34.3852 14.2309
rtibia 19.1799
rfoot -49.2624 -18.4583
rtoes 66.931
lfemur -15.6947 -21.3348 -20.6847
ltibia 19.9475
lfoot -18.1773 27.7841
ltoes 58.8177
195
root 8.47562 19.8442 12.2893 177.776 -5.72202 -181.241
lowerback 15.8092 0.318814 3.02204
upperback -2.25098 1.13912 1.4696
thorax -11.3643 0.378173 -0.38815
lowerneck -6.93514 -2.89728 -6.48904
upperneck 8.2292 -3.49692 2.42126
head 4.15517 -1.85481 1.77377
rclavicle -4.61553e-015 -1.98785e-014
rhumerus 91.7154 -27.986 -50.3946
rradius 38.2756
rwrist 4.17342
rhand -9.4011 -36.1697
rfingers 7.12502
rthumb 16.5603 294.517
lclavicle -4.61553e-015 -1.98785e-014
lhumerus 97.09 33.8157 59.0837
lradius 36.3107
lwrist 11.4015
lhand -15.3663 -49.3509
lfingers 7.12502
lthumb 10.8115 -19.6492
rfemur -16.7408 34.4192 13.9962
rtibia 19.3545
rfoot -48.8915 -19.5607
rtoes 66.7508
lfemur -15.6646 -20.8993 -20.8146
ltibia 19.5241
lfoot -16.8151 27.1694
ltoes 57.7601
196
root 8.47262 19.6506 12.1539 177.54 -6.11451 -181.283
lowerback 15.5542 0.287958 3.10465
upperback -2.12646 1.10119 1.53924
thorax -11.0762 0.36067 -0.347328
lowerneck -7.47189 -3.01569 -6.51198
upperneck 9.18918 -3.63698 2.40733
head 4.13418 -1.92452 1.57762
rclavicle 3.78933e-015 -1.11319e-014
rhumerus 92.8706 -27.8655 -50.8327
rradius 38.5076
rwrist 3.80391
rhand -8.62908 -36.0303
rfingers 7.12502
rthumb 17.3035 294.72
lclavicle 3.78933e-015 -1.11319e-014
lhumerus 96.6556 34.5224 58.1796
lradius 37.0598
lwrist 12.1888
lhand -15.5856 -48.9327
lfingers 7.12502
lthumb 10.5999 -19.2201
rfemur -16.5835 33.8302 13.9062
rtibia 19.5178
rfoot -47.6674 -21.4156
rtoes 66.3443
lfemur -15.5859 -20.3549 -21.0282
ltibia 19.1284
lfoot -14.3567 26.994
ltoes 55.9735
197
root 8.46707 19.4437 12.0184 177.269 -6.40091 -181.324
lowerback 15.5291 0.270841 3.23426
upperback -2.17616 1.10793 1.59137
thorax -11.1164 0.355943 -0.364795
lowerneck -7.66797 -3.06549 -6.52263
upperneck 9.75395 -3.69131 2.22331
head 4.33907 -1.97395 1.51319
rclavicle -4.31114e-015 -1.51076e-014
rhumerus 93.544 -27.6285 -51.0221
rradius 39.0248
rwrist 2.93731
rhand -8.3989 -36.1464
rfingers 7.12502
rthumb 17.525 294.624
lclavicle -4.31114e-015 -1.51076e-014
lhumerus 95.7313 35.1874 57.1033
lradius 38.1791
lwrist 13.2607
lhand -15.59 -48.2599
lfingers 7.12502
lthumb 10.5957 -18.547
rfemur -16.3282 32.6255 13.9789
rtibia 19.7193
rfoot -44.994 -24.6278
rtoes 65.5508
lfemur -15.412 -19.8923 -21.2317
ltibia 18.6897
lfoot -11.576 26.7085
ltoes 53.4504
198
root 8.45769 19.2237 11.88 177.039 -6.6677 -181.357
lowerback 15.4041 0.213735 3.39321
upperback -2.29055 1.06446 1.62875
thorax -11.1718 0.325 -0.401668
lowerneck -7.42686 -3.02555 -6.49089
upperneck 9.97071 -3.64874 1.96959
head 4.35857 -1.97701 1.4346
rclavicle -4.47266e-016 -4.69132e-014
rhumerus 93.8455 -27.347 -51.0727
rradius 39.8386
rwrist 1.77101
rhand -8.55045 -36.6095
rfingers 7.12502
rthumb 17.3791 294.147
lclavicle -4.47266e-016 -4.69132e-014
lhumerus 94.3814 36.0424 55.7127
lradius 39.694
lwrist 14.8437
lhand -15.1223 -47.4068
lfingers 7.12502
lthumb 11.0468 -17.7175
rfemur -16.0409 31.063 14.1166
rtibia 19.9106
rfoot -40.6506 -29.2089
rtoes 64.1975
lfemur -15.2234 -19.4079 -21.4168
ltibia 18.2576
lfoot -8.4318 26.2309
ltoes 49.4073
199
root 8.45144 18.9957 11.7369 176.792 -7.00272 -181.336
lowerback 15.1304 0.143838 3.56449
upperback -2.33745 0.993735 1.6543
thorax -11.0647 0.282584 -0.451341
lowerneck -7.32422 -3.00627 -6.52037
upperneck 10.2148 -3.62909 1.85403
head 4.41412 -1.98448 1.40481
rclavicle -4.24902e-015 -3.26007e-014
rhumerus 94.1142 -27.3116 -51.1009
rradius 40.7222
rwrist 0.651385
rhand -8.23012 -37.0946
rfingers 7.12502
rthumb 17.6874 293.69
lclavicle -4.24902e-015 -3.26007e-014
lhumerus 92.797 36.981 53.9716
lradius 41.4397
lwrist 16.7081
lhand -14.6857 -46.5292
lfingers 7.12502
lthumb 11.4678 -16.8629
rfemur -15.6258 29.3561 14.3877
rtibia 20.0917
rfoot -34.7217 -33.7777
rtoes 62.2465
lfemur -14.972 -18.7988 -21.5712
ltibia 17.8809
lfoot -4.56271 25.4994
ltoes 42.5012
200
root 8.44994 18.7566 11.5916 176.416 -7.31241 -181.233
lowerback 15.0002 0.111535 3.81747
upperback -2.33425 0.992431 1.69707
thorax -10.9826 0.267339 -0.546281
lowerneck -7.48003 -3.03141 -6.61835
upperneck 10.5895 -3.64431 1.76078
head 4.55632 -2.01074 1.38612
rclavicle -1.1281e-014 -4.29375e-014
rhumerus 94.3068 -27.4425 -51.1906
rradius 41.8943
rwrist -0.123947
rhand -7.84093 -37.6266
rfingers 7.12502
rthumb 18.0619 293.192
lclavicle -1.1281e-014 -4.29375e-014
lhumerus 91.0927 37.6888 52.3333
lradius 43.4515
lwrist 18.1656
lhand -14.5539 -45.9406
lfingers 7.12502
lthumb 11.5949 -16.2813
rfemur -15.0031 27.7063 14.8425
rtibia 20.286
rfoot -27.9149 -37.0962
rtoes 59.9717
lfemur -14.5268 -17.7038 -21.7452
ltibia 17.5979
lfoot -0.954938 24.1831
ltoes 35.1117
201
root 8.44865 18.5065 11.4488 175.998 -7.65258 -181.152
lowerback 14.8327 0.173803 4.18162
upperback -2.37295 1.1266 1.57019
thorax -10.9148 0.305469 -0.92137
lowerneck -7.11009 -3.1524 -6.26347
upperneck 10.6982 -3.85838 1.47197
head 4.52418 -2.12803 1.23069
rclavicle -4.96962e-016 -7.23576e-014
rhumerus 93.6847 -28.0805 -50.6983
rradius 43.3999
rwrist -1.04428
rhand -7.71447 -38.5566
rfingers 7.12502
rthumb 18.1836 292.273
lclavicle -4.96962e-016 -7.23576e-014
lhumerus 89.6129 37.7988 51.0766
lradius 45.6501
lwrist 18.8668
lhand -14.0776 -45.6444
lfingers 7.12502
lthumb 12.0543 -16.0115
rfemur -14.2821 25.9125 15.298
rtibia 20.4789
rfoot -18.799 -39.6134
rtoes 56.3416
lfemur -14.0614 -16.0311 -22.0396
ltibia 17.4945
lfoot 3.38506 22.1244
ltoes 23.7262
202
root 8.44519 18.2467 11.3094 175.673 -8.05088 -181.12
lowerback 14.4024 0.174875 4.2708
upperback -2.2635 1.11769 1.64199
thorax -10.5411 0.305303 -0.888036
lowerneck -6.98793 -3.26209 -6.46146
upperneck 10.7576 -3.99743 1.44545
head 4.53144 -2.2102 1.2466
rclavicle -2.28602e-015 -5.64548e-014
rhumerus 93.2518 -28.8673 -49.7721
rradius 45.1846
rwrist -2.28971
rhand -7.42898 -40.067
rfingers 7.12502
rthumb 18.4582 290.789
lclavicle -2.28602e-015 -5.64548e-014
lhumerus 87.7209 38.6132 49.6022
lradius 48.1163
lwrist 19.3716
lhand -13.3542 -45.3249
lfingers 7.12502
lthumb 12.7518 -15.7343
rfemur -13.6593 23.9979 15.6404
rtibia 20.7238
rfoot -8.15996 -40.6057
rtoes 50.6379
lfemur -13.81 -14.4894 -22.3496
ltibia 17.6493
lfoot 7.5209 19.5533
ltoes 11.5309
203
root 8.44201 17.9781 11.1729 175.343 -8.44634 -181.105
lowerback 14.0291 0.197298 4.17931
upperback -2.11833 1.11185 1.80885
thorax -10.1668 0.31947 -0.651444
lowerneck -6.85118 -3.36408 -6.89319
upperneck 10.6326 -4.11744 1.6429
head 4.48874 -2.27325 1.37195
rclavicle 5.53118e-014 3.18055e-014
rhumerus 92.6429 -29.8971 -48.3781
rradius 47.1099
rwrist -3.41552
rhand -7.50159 -41.6105
rfingers 7.12502
rthumb 18.3884 289.239
lclavicle 5.53118e-014 3.18055e-014
lhumerus 85.2245 39.6529 47.6219
lradius 50.9405
lwrist 19.8778
lhand -13.3361 -45.1027
lfingers 7.12502
lthumb 12.7692 -15.5132
rfemur -13.0825 21.901 15.9785
rtibia 21.1287
rfoot 1.04544 -39.7403
rtoes 44.8385
lfemur -13.6414 -13.2471 -22.6321
ltibia 18.099
lfoot 10.7859 17.0013
ltoes 5.26464
204
root 8.44101 17.6978 11.0404 174.92 -8.8512 -181.041
lowerback 14.8975 0.00253777 4.67713
upperback -2.6391 1.00259 1.52462
thorax -11.2519 0.20338 -1.22033
lowerneck -6.34791 -3.26656 -6.80713
upperneck 10.8703 -4.0891 1.93075
head 4.47933 -2.25523 1.45512
rclavicle 2.127e-014 -5.48646e-014
rhumerus 90.8753 -30.4745 -47.0875
rradius 49.0385
rwrist -4.177
rhand -8.1966 -42.6004
rfingers 7.12502
rthumb 17.7197 288.187
lclavicle 2.127e-014 -5.48646e-014
lhumerus 81.1206 40.1673 43.6519
lradius 54.2885
lwrist 20.6815
lhand -13.8644 -45.0451
lfingers 7.12502
lthumb 12.2598 -15.4244
rfemur -12.5335 19.6075 16.4084
rtibia 21.8123
rfoot 7.03134 -37.9073
rtoes 40.9927
lfemur -13.4868 -12.0603 -22.8473
ltibia 18.8413
lfoot 14.1799 13.9145
ltoes -0.672531
